<svg xmlns="http://www.w3.org/2000/svg" width="179.12" height="120.686" viewBox="0 0 179.12 120.686"><defs><style>.a{fill:#fff;stroke:#ff2acd;}</style></defs><path class="a" d="M-52.05,0V-27.12a.667.667,0,0,0-1.26-.36l-12.18,17.4L-77.67-27.54a.731.731,0,0,0-1.32.42V0a.666.666,0,0,0,.66.66A.7.7,0,0,0-77.55,0V-24.9l11.4,16.5.18.18a.785.785,0,0,0,1.02-.18l11.52-16.5V0a.681.681,0,0,0,.72.66A.666.666,0,0,0-52.05,0Zm-34.2,0V-43.56a.738.738,0,0,0-.78-.66.666.666,0,0,0-.66.66V0a.666.666,0,0,0,.66.66A.738.738,0,0,0-86.25,0Zm42.9,0V-43.56a.681.681,0,0,0-.72-.66.666.666,0,0,0-.66.66V0a.666.666,0,0,0,.66.66A.681.681,0,0,0-43.35,0Zm-9.12-43.92L-65.49-25.26-78.57-43.92a.641.641,0,0,0-.96-.18.679.679,0,0,0-.18.96l13.56,19.5.18.18a.726.726,0,0,0,1.02-.18l13.62-19.5a.736.736,0,0,0-.18-.96A.634.634,0,0,0-52.47-43.92Zm27.24,28.26a7.436,7.436,0,0,0,7.68,7.8,7.484,7.484,0,0,0,7.74-7.8V-42.84a.681.681,0,0,0-.72-.66.666.666,0,0,0-.66.66v27.18a6.143,6.143,0,0,1-6.36,6.48,6.176,6.176,0,0,1-6.36-6.48V-42.84a.666.666,0,0,0-.66-.66.666.666,0,0,0-.66.66ZM-2.55-42.84v27.66c0,9-6.66,14.76-15,14.76-8.7,0-15-6-15-14.76V-42.84a.666.666,0,0,0-.66-.66.681.681,0,0,0-.72.66v27.66C-33.93-5.7-26.97.96-17.55.96-8.37.96-1.17-5.4-1.17-15.18V-42.84a.666.666,0,0,0-.66-.66A.681.681,0,0,0-2.55-42.84ZM6.69-2.22A29.58,29.58,0,0,0,13.53.24c10.92,2.58,20.58-2.1,20.58-12.96S20.97-25.8,18.27-27.84a3.308,3.308,0,0,1-1.32-2.52c-.06-2.04,1.56-3.12,3.36-3.36,2.82-.3,6.48.84,8.58,1.68a.685.685,0,1,0,.54-1.26,19.5,19.5,0,0,0-9.06-1.8,4.765,4.765,0,0,0-4.8,4.92c.36,5.46,7.8,4.32,13.68,9.84,5.1,4.68,4.2,12.18.12,16.32-5.34,5.34-15.06,4.2-21.96.6C6.57-3.84,5.91-2.64,6.69-2.22ZM30.51-41.94a36.853,36.853,0,0,0-6.66-1.68C14.19-44.94,6.93-39.36,6.93-30.06,6.93-18.9,20.07-17.34,22.89-15a3.188,3.188,0,0,1,.18,4.74c-3,2.76-10.74.54-14.52-2.1a.691.691,0,0,0-.78,1.14A19.662,19.662,0,0,0,20.25-7.68c2.82-.18,5.34-2.16,5.16-4.98-.36-5.52-7.68-4.5-13.56-9.6-5.16-4.62-4.2-12.24-.36-16.38,4.74-5.16,12.12-4.26,18.54-2.04A.674.674,0,1,0,30.51-41.94ZM51.27,0V-42.9a.666.666,0,0,0-.66-.66.681.681,0,0,0-.72.66V0a.681.681,0,0,0,.72.66A.666.666,0,0,0,51.27,0ZM42.69,0V-42.9a.666.666,0,0,0-.66-.66.681.681,0,0,0-.72.66V0a.681.681,0,0,0,.72.66A.666.666,0,0,0,42.69,0ZM89.97-42.24a22.743,22.743,0,0,0-8.7-1.74c-10.68,0-17.52,5.76-20.52,13.2a24.418,24.418,0,0,0,0,18.18C63.75-5.22,70.59.54,81.27.54a22.686,22.686,0,0,0,8.7-1.68.7.7,0,0,0,.36-.96.771.771,0,0,0-.9-.36A20.022,20.022,0,0,1,81.27-.84c-10.08,0-16.5-5.34-19.32-12.3a23.531,23.531,0,0,1,0-17.16c2.82-6.84,9.24-12.3,19.32-12.3a21.065,21.065,0,0,1,8.16,1.62.707.707,0,0,0,.9-.36A.685.685,0,0,0,89.97-42.24ZM88.29-11.22a13.053,13.053,0,0,1-7.02,1.8c-5.76,0-9.36-3.12-10.98-7.2a14.073,14.073,0,0,1,0-10.14,11.217,11.217,0,0,1,10.98-7.2,13.559,13.559,0,0,1,7.02,1.74.662.662,0,0,0,.9-.24.735.735,0,0,0-.24-.96,14.352,14.352,0,0,0-7.68-1.92c-6.36,0-10.5,3.54-12.24,8.1a15.4,15.4,0,0,0,0,11.1c1.74,4.56,5.88,8.04,12.24,8.04a14.352,14.352,0,0,0,7.68-1.92.677.677,0,0,0,.24-.9A.634.634,0,0,0,88.29-11.22ZM-42.78,66.14a5.022,5.022,0,0,0,5.16-5.04,4.961,4.961,0,0,0-5.16-4.92h-7.5a.738.738,0,0,0-.78.66.738.738,0,0,0,.78.66h7.5a3.6,3.6,0,0,1,3.72,3.6,3.6,3.6,0,0,1-3.72,3.6h-2.46a.72.72,0,0,0-.66.72.72.72,0,0,0,.66.72Zm-7.5-25.8h7.5a3.6,3.6,0,0,1,3.72,3.6,3.6,3.6,0,0,1-3.72,3.6h-2.46a.681.681,0,0,0-.66.72.666.666,0,0,0,.66.66h2.46a5.01,5.01,0,0,0,5.16-4.98,5.01,5.01,0,0,0-5.16-4.98h-7.5a.7.7,0,0,0-.78.66A.745.745,0,0,0-50.28,40.34ZM-58.2,74V31.7H-42A12.088,12.088,0,0,1-30,43.94a12.354,12.354,0,0,1-3,8.16.653.653,0,0,0,0,.9,12.2,12.2,0,0,1,3,8.1A12.126,12.126,0,0,1-42,73.34h-8.28A.681.681,0,0,0-51,74a.71.71,0,0,0,.72.78H-42A13.547,13.547,0,0,0-28.56,61.1a13.945,13.945,0,0,0-3-8.58,13.817,13.817,0,0,0,3-8.58A13.547,13.547,0,0,0-42,30.26H-58.98a.738.738,0,0,0-.66.78V74a.7.7,0,0,0,.66.78A.756.756,0,0,0-58.2,74ZM22.68,45.56A23.37,23.37,0,0,0,.48,29.54c-13.56,0-22.92,9.72-22.92,22.92,0,13.26,9.36,22.98,22.92,22.98a23.269,23.269,0,0,0,22.2-16.08.747.747,0,0,0-.48-.9.677.677,0,0,0-.9.48A21.737,21.737,0,0,1,.48,74c-12.72,0-21.54-9.06-21.54-21.54S-12.24,30.98.48,30.98a21.76,21.76,0,0,1,20.82,15,.677.677,0,0,0,.9.48A.72.72,0,0,0,22.68,45.56Zm-34.2,13.92a13.876,13.876,0,0,0,12,7.08,14,14,0,0,0,13.86-14.1A13.982,13.982,0,0,0,.48,38.42a13.82,13.82,0,0,0-12,7.02.833.833,0,0,0,.24,1.02.769.769,0,0,0,1.02-.3A12.271,12.271,0,0,1,.48,39.8a12.662,12.662,0,0,1,0,25.32,12.271,12.271,0,0,1-10.74-6.36.814.814,0,0,0-1.02-.24A.752.752,0,0,0-11.52,59.48ZM61.02,30.62,48.48,50.72a.762.762,0,0,0,0,.72L62.64,74.3a.814.814,0,0,0,1.02.24.668.668,0,0,0,.18-.96L49.92,51.08,62.16,31.4a.751.751,0,0,0-.24-1.02A.627.627,0,0,0,61.02,30.62ZM53.28,73.64,45.06,60.26a.788.788,0,0,0-1.26,0L35.58,73.64a.611.611,0,0,0,.18.9.668.668,0,0,0,.96-.18l7.74-12.42,7.68,12.42a.735.735,0,0,0,.96.24A.688.688,0,0,0,53.28,73.64Zm-27.06.66L40.38,51.44a.763.763,0,0,0,0-.72L27.84,30.62a.627.627,0,0,0-.9-.24.814.814,0,0,0-.24,1.02L38.94,51.08,25.02,73.58a.722.722,0,0,0,.18.96A.814.814,0,0,0,26.22,74.3ZM36.66,31.34,43.8,42.86a.787.787,0,0,0,1.26,0L52.2,31.34a.752.752,0,0,0-.24-.96.779.779,0,0,0-1.02.24L44.46,41.18,37.92,30.62a.779.779,0,0,0-1.02-.24A.752.752,0,0,0,36.66,31.34Z" transform="translate(88.19 44.746)"/></svg>