<svg xmlns="http://www.w3.org/2000/svg" width="239.999" height="168.563" viewBox="0 0 239.999 168.563"><defs><style>.a,.b{fill:#6c63ff;}.b,.j{opacity:0.1;}.c{fill:#e6e6e6;}.d{fill:#3f3d56;}.e{fill:#f2f2f2;}.f{fill:none;stroke:#3f3d56;stroke-miterlimit:10;stroke-width:2px;}.g{fill:#fff;}.h{fill:#a0616a;}.i{fill:#2f2e41;}.k{fill:#575a89;}</style></defs><g transform="translate(-46 -51)"><g transform="translate(46 51)"><ellipse class="a" cx="37.573" cy="2.909" rx="37.573" ry="2.909" transform="translate(0 162.745)"/><path class="b" d="M170.539,123.951l-.032-.178-3.048-1.614h-.478l-.183-.351h-6.281l-1.457.351H153.7l-1.453,1.7-.015.1c-.094.607-2.2,14.87,3.35,19.408l2.312,1.075h1.5l-.292-.584,1.3.584H164.6l.075-.112,2.5-.935.064-.074C167.464,143.052,172.772,136.6,170.539,123.951Z" transform="translate(-140.418 -117.084)"/><rect class="c" width="2.476" height="6.437" transform="translate(20.099 21.044)"/><rect class="d" width="4.456" height="123.789" transform="translate(18.985 35.775)"/><rect class="d" width="6.685" height="4.209" transform="translate(17.871 33.671)"/><path class="d" d="M63.51,107.239l4.209,4.456-1.733,3.218,3.466.743,3.219-.743-1.981-3.466,3.961-4.209Z" transform="translate(-48.115 -81.243)"/><path class="d" d="M149.011,120.083,147.03,118.1l1.485-1.485h18.816l1.485,1.733-2.228,1.733S154.705,119.587,149.011,120.083Z" transform="translate(-136.834 -113.15)"/><path class="d" d="M170.538,121.171l-.032-.178-3.048-1.614-1.391-.738-7.811-.5-4.38,1.03-.181.21-1.453,1.7-.015.1c-.094.607-2.2,14.87,3.35,19.408l2.312,1.075,1.946.9-.451-.9-.74-1.478c-.775-4.511-2.478-16.363-1.391-18.838l4.491-1.448,3.986,1.481c.275,1.78,2.052,14.261-1.062,18.71l-.067.1v1.394l2.572-.963.064-.074C167.464,140.271,172.772,133.822,170.538,121.171Zm-3.813,18.816-1.381.52v-.094c3.417-5.1,1.183-18.786,1.087-19.371l-.035-.213-3.907-1.451-.725-.27-.837.27-4.189,1.352-.072.126c-1.592,2.855,1.139,18.826,1.255,19.5l.01.054.295.589-2.216-1.022c-4.939-4.112-3.246-17.281-3.065-18.586l1.337-1.56,1.946-.458,2.092-.493,3.444.223,4.095.265.01,0,3.969,2.1c1.966,11.475-2.545,17.776-3.112,18.509Z" transform="translate(-140.417 -114.303)"/><ellipse class="d" cx="6.685" cy="3.466" rx="6.685" ry="3.466" transform="translate(14.653)"/><path class="d" d="M166.312,734.517l-3.961,12.627s6.189,3.466,14.607,0L173,734.517Z" transform="translate(-148.441 -581.266)"/><ellipse class="a" cx="1.981" cy="1.981" rx="1.981" ry="1.981" transform="translate(19.357 17.826)"/><path class="a" d="M493.42,461.348a12.43,12.43,0,0,0,4.63,6.263,10.7,10.7,0,0,0-3.788-14A12.432,12.432,0,0,0,493.42,461.348Z" transform="translate(-399.017 -368.45)"/><path class="c" d="M478.327,472.649a12.43,12.43,0,0,1,3.221,7.09,10.7,10.7,0,0,1-10.4-10.12A12.429,12.429,0,0,1,478.327,472.649Z" transform="translate(-382.386 -380.582)"/><path class="e" d="M521.376,261.2,421.249,289.589,512.6,238.115a91.724,91.724,0,0,0-15.528-20.788l-88.633,48.78,74.2-60.59a90.87,90.87,0,0,0-35.236-13.852l-41.1,68.62,27.221-69.851c-.405-.005-.81-.011-1.217-.011a91.424,91.424,0,0,0-78.2,138.755H510.507a91.693,91.693,0,0,0,10.868-67.98Z" transform="translate(-283.714 -169.066)"/><path class="a" d="M905.238,683.486c0-7.8-3.957-14.119-8.837-14.119-3.068,0-5.769,2.5-7.354,6.289a4.434,4.434,0,0,0-1.689-.339,5.3,5.3,0,0,0-3.957,2.038c-1.428-4.727-4.457-7.989-7.963-7.989-3.278,0-6.137,2.853-7.662,7.088a4.828,4.828,0,0,0-3.025-1.137c-3.746,0-6.782,4.851-6.782,10.835a15.786,15.786,0,0,0,1.069,5.834h44.419A20.087,20.087,0,0,0,905.238,683.486Z" transform="translate(-675.435 -531.909)"/><path class="f" d="M684.346,229.381h0A34.155,34.155,0,0,1,718.5,195.226" transform="translate(-543.9 -172.704)"/><path class="a" d="M688.319,291.289c-2.736,10.113-12.107,16.377-12.107,16.377s-4.935-10.133-2.2-20.247,12.106-16.377,12.106-16.377S691.055,281.176,688.319,291.289Z" transform="translate(-535.446 -230.142)"/><path class="a" d="M630.359,291.289c2.736,10.113,12.106,16.377,12.106,16.377s4.935-10.133,2.2-20.247-12.107-16.377-12.107-16.377S627.623,281.176,630.359,291.289Z" transform="translate(-502.374 -230.142)"/><path class="d" d="M590.89,320.84c7.507,7.308,8.424,18.542,8.424,18.542s-11.254-.614-18.762-7.922-8.424-18.542-8.424-18.542S583.383,313.532,590.89,320.84Z" transform="translate(-458.885 -261.866)"/><path class="d" d="M692.7,320.84c-7.507,7.308-8.424,18.542-8.424,18.542s11.254-.614,18.762-7.922,8.424-18.542,8.424-18.542S700.207,313.532,692.7,320.84Z" transform="translate(-543.847 -261.866)"/><path class="a" d="M801.278,202.68c1.213-4.482,5.366-7.258,5.366-7.258s2.187,4.491.975,8.973-5.366,7.258-5.366,7.258S800.065,207.162,801.278,202.68Z" transform="translate(-632.209 -172.852)"/><path class="a" d="M826.966,202.68c-1.213-4.482-5.366-7.258-5.366-7.258s-2.187,4.491-.975,8.973,5.366,7.258,5.366,7.258S828.179,207.162,826.966,202.68Z" transform="translate(-646.867 -172.852)"/><path class="d" d="M828.908,203.654c-3.327-3.239-3.734-8.218-3.734-8.218s4.988.272,8.315,3.511,3.734,8.218,3.734,8.218S832.235,206.893,828.908,203.654Z" transform="translate(-650.59 -172.864)"/><path class="d" d="M783.785,203.654c3.327-3.239,3.734-8.218,3.734-8.218s-4.988.272-8.315,3.511-3.734,8.218-3.734,8.218S780.458,206.893,783.785,203.654Z" transform="translate(-612.935 -172.864)"/><path class="d" d="M530.582,458.7h-4.075V436.129a2.336,2.336,0,0,0-2.329-2.329h-6.986V413.93a2.335,2.335,0,0,0-2.329-2.329H406.188a2.336,2.336,0,0,0-2.329,2.329V433.8h-6.986a2.336,2.336,0,0,0-2.329,2.329V458.7h-4.075a2.336,2.336,0,0,0-2.329,2.329v33.379a2.335,2.335,0,0,0,2.329,2.329H530.582a2.336,2.336,0,0,0,2.329-2.329V461.033A2.335,2.335,0,0,0,530.582,458.7Z" transform="translate(-319.497 -336.628)"/><path class="a" d="M886.821,562.364a12.43,12.43,0,0,0-1.479,7.646,10.7,10.7,0,0,0,7.749-12.265A12.431,12.431,0,0,0,886.821,562.364Z" transform="translate(-696.1 -447.345)"/><path class="c" d="M880.845,556.233A12.43,12.43,0,0,1,877.8,563.4a10.7,10.7,0,0,1,.418-14.5A12.429,12.429,0,0,1,880.845,556.233Z" transform="translate(-688.471 -440.644)"/><rect class="c" width="131.962" height="2.329" transform="translate(75.047 122.076)"/><rect class="c" width="113.332" height="2.329" transform="translate(84.362 97.236)"/><ellipse class="a" cx="2.329" cy="2.329" rx="2.329" ry="2.329" transform="translate(172.272 38.241)"/><path class="a" d="M412.411,336.251l61.328-17.418,9.14,32.18-4.43,1.258,3.378,11.893-15.27-8.515-45,12.782Z" transform="translate(-312.439 -241.545)"/><path class="g" d="M638.349,505.289l-1.359-.669c-4.845-2.437-8.032-4.006-8.842-6.859a4.218,4.218,0,0,1,2.931-5.295,4.589,4.589,0,0,1,3.806.623,4.588,4.588,0,0,1,2.91-2.53,4.219,4.219,0,0,1,5.277,2.963c.81,2.853-1.077,5.863-3.917,10.483Z" transform="translate(-501.187 -396.314)"/><path class="h" d="M203.218,416.638s-1.573,4.72-.7,5.769-5.245-3.147-5.245-3.147l3.322-3.846Z" transform="translate(-174.898 -339.516)"/><ellipse class="i" cx="7.85" cy="7.85" rx="7.85" ry="7.85" transform="translate(16.882 61.415)"/><path class="h" d="M208.224,527.014l-4.021,3.147-2.273-3.672,4.021-2.8Z" transform="translate(-152.98 -396.744)"/><path class="i" d="M288.01,735.8l1.049,5.07,2.972,4.021s8.042,2.448,2.622,3.671-6.643-.874-6.643-.874l-3.846-3.322v4.545h-2.448l-.525-6.469a5.555,5.555,0,0,1,1.224-4.021l.35-3.147Z" transform="translate(-238.449 -581.839)"/><path class="h" d="M206.638,473.6l1.4,8.042s14.861-1.573,15.909,1.4,1.4,3.846,1.4,3.846l-2.972,1.049-1.4-2.622a3.321,3.321,0,0,0-2.622.175c-1.4.7-13.637,2.448-14.511.175S200.519,475,200.519,475l3.671-2.972Z" transform="translate(-177.357 -382.408)"/><path class="j" d="M206.638,473.6l1.4,8.042s14.861-1.573,15.909,1.4,1.4,3.846,1.4,3.846l-2.972,1.049-1.4-2.622a3.321,3.321,0,0,0-2.622.175c-1.4.7-13.637,2.448-14.511.175S200.519,475,200.519,475l3.671-2.972Z" transform="translate(-177.357 -382.408)"/><path class="i" d="M259.659,566.247l1.224,4.2,3.147,16.084s.35,11.888.874,13.287.524,1.574,0,2.1-1.573,2.273,0,3.322,7.168,2.273,7.343,1.049a15.412,15.412,0,0,0,0-4.021c-.175-.874.525-14.511.525-14.511l-2.1-20.8-7.168-3.322Z" transform="translate(-222.161 -451.799)"/><path class="j" d="M259.659,566.247l1.224,4.2,3.147,16.084s.35,11.888.874,13.287.524,1.574,0,2.1-1.573,2.273,0,3.322,7.168,2.273,7.343,1.049a15.412,15.412,0,0,0,0-4.021c-.175-.874.525-14.511.525-14.511l-2.1-20.8-7.168-3.322Z" transform="translate(-222.161 -451.799)"/><path class="i" d="M254.064,506.648l3.846,7.343s22.029,9.79,20.105,13.812-12.588,11.539-12.588,11.539-.525,2.972-2.1,2.1-5.42-5.42-5.07-5.944,1.573-1.748,2.1-1.574S267,529.376,267,529.376l-10.49-2.622s-12.588-.35-13.287-6.294,0-6.993,0-6.993l-.874-1.923,7.168-4.371Z" transform="translate(-209.048 -408.634)"/><path class="i" d="M269.318,626.37l-3.671,3.322s-3.147-1.4-5.07-.874a43.233,43.233,0,0,1-5.245.874l.525,2.972,4.461-.823-3.586,5.019s0,7.867,2.273,7.867,1.573-4.72,1.573-4.72l6.993-5.42s3.5-1.4,3.846-1.4S269.318,626.37,269.318,626.37Z" transform="translate(-218.883 -499.335)"/><ellipse class="h" cx="5.944" cy="5.944" rx="5.944" ry="5.944" transform="translate(21.676 66.632)"/><path class="k" d="M193.009,419.852s2.8-.7,3.671,0,1.049,2.273,2.273,2.448a12.4,12.4,0,0,1,2.448.35c.175.175,4.2,5.07,4.2,5.07s2.448,1.4,2.972,3.322,5.769,8.392,6.469,9.091-4.546,4.2-6.294,5.42-6.818,1.748-8.392-1.049S190.211,423.523,193.009,419.852Z" transform="translate(-171.245 -342.643)"/><path class="h" d="M203.032,462.785l1.4,8.042s14.86-1.573,15.909,1.4,1.4,3.846,1.4,3.846l-2.972,1.049-1.4-2.622a3.32,3.32,0,0,0-2.622.175c-1.4.7-13.637,2.448-14.511.175s-3.322-10.665-3.322-10.665l3.671-2.972Z" transform="translate(-174.625 -374.212)"/><path class="k" d="M191.745,421.654s4.215,8.88,3.865,11.328-1.573.7-1.573.7-1.573-2.448-2.273-1.049-1.574,3.322-2.273,3.147-4.546-13.112-2.448-14.336S191.745,421.654,191.745,421.654Z" transform="translate(-166.679 -343.71)"/><ellipse class="i" cx="7.85" cy="7.85" rx="7.85" ry="7.85" transform="translate(8.378 51.079)"/><path class="i" d="M132.99,349.286a7.85,7.85,0,0,0,12.122-4.122,7.85,7.85,0,1,1-15.312-3.219A7.847,7.847,0,0,0,132.99,349.286Z" transform="translate(-123.533 -283.858)"/><ellipse class="i" cx="5.756" cy="5.756" rx="5.756" ry="5.756" transform="translate(16.882 64.816)"/><ellipse class="i" cx="5.102" cy="3.99" rx="5.102" ry="3.99" transform="translate(22.377 64.424)"/><ellipse class="h" cx="1.136" cy="2.011" rx="1.136" ry="2.011" transform="translate(26.571 71.177)"/><path class="i" d="M283.225,522.145s3.095-1.776,3.67-1.331a3.827,3.827,0,0,1,.83,1.839l-3.577,1.4-1.049-1.923Z" transform="translate(-239.918 -419.313)"/></g></g></svg>