<svg xmlns="http://www.w3.org/2000/svg" width="240" height="163.551" viewBox="0 0 240 163.551"><defs><style>.a{fill:#6c63ff;}.b{fill:#3f3d56;}.c{fill:#e6e6e6;}.d{fill:#2f2e41;}.e{fill:#ffb8b8;}</style></defs><g transform="translate(0 0)"><path class="a" d="M487.278,221.143c-1.917,7.085-8.481,11.472-8.481,11.472s-3.457-7.1-1.541-14.183,8.481-11.472,8.481-11.472S489.194,214.059,487.278,221.143Z" transform="translate(-385.28 -181.625)"/><path class="a" d="M444.833,221.143c1.917,7.085,8.481,11.472,8.481,11.472s3.457-7.1,1.541-14.183-8.481-11.472-8.481-11.472S442.917,214.059,444.833,221.143Z" transform="translate(-360.404 -181.625)"/><path class="b" d="M414.763,243.611c5.259,5.119,5.9,12.989,5.9,12.989s-7.884-.43-13.143-5.55-5.9-12.989-5.9-12.989S409.5,238.491,414.763,243.611Z" transform="translate(-327.645 -205.502)"/><path class="b" d="M490.814,243.611c-5.259,5.119-5.9,12.989-5.9,12.989s7.884-.43,13.143-5.55,5.9-12.989,5.9-12.989S496.073,238.491,490.814,243.611Z" transform="translate(-391.539 -205.502)"/><path class="a" d="M1061.495,695.378c1.233,4.556,5.455,7.378,5.455,7.378s2.224-4.566.991-9.122-5.454-7.378-5.454-7.378S1060.262,690.821,1061.495,695.378Z" transform="translate(-833.67 -549.085)"/><path class="b" d="M1042.153,709.827c3.382,3.293,3.8,8.354,3.8,8.354s-5.071-.277-8.453-3.569-3.8-8.354-3.8-8.354S1038.771,706.535,1042.153,709.827Z" transform="translate(-812.517 -564.514)"/><path class="b" d="M199.594,310.406V412.78H330.066V310.406Zm85.654,51.875a23.273,23.273,0,0,1-.165,2.767l-.569-.068a22.3,22.3,0,0,1-.485,2.66l.557.137a22.875,22.875,0,0,1-.825,2.65l-.536-.2a22.278,22.278,0,0,1-1.112,2.467l.507.267a23.03,23.03,0,0,1-1.437,2.373l-.471-.326a22.5,22.5,0,0,1-1.669,2.128l.429.38a23.148,23.148,0,0,1-1.961,1.961l-.38-.429A22.5,22.5,0,0,1,275,380.714l.326.471a23.061,23.061,0,0,1-2.371,1.437l-.267-.507a22.291,22.291,0,0,1-2.465,1.112l.2.536a22.833,22.833,0,0,1-2.648.825l-.137-.556a22.327,22.327,0,0,1-2.66.486l.069.569a23.311,23.311,0,0,1-2.767.166v-.572h-.011a22.616,22.616,0,0,1-2.688-.161l-.068.569a23.082,23.082,0,0,1-2.729-.5l.136-.557a22.221,22.221,0,0,1-2.584-.8l-.2.536a22.908,22.908,0,0,1-2.531-1.139l.267-.507a22.381,22.381,0,0,1-2.314-1.4l-.326.471a23.208,23.208,0,0,1-2.183-1.71l.38-.429a22.53,22.53,0,0,1-1.913-1.911l-.429.381a23.173,23.173,0,0,1-1.713-2.18l.471-.327a22.384,22.384,0,0,1-1.4-2.311l-.507.267a22.943,22.943,0,0,1-1.142-2.528l.536-.2a22.221,22.221,0,0,1-.806-2.581l-.557.137a22.961,22.961,0,0,1-.5-2.728l.569-.069a22.622,22.622,0,0,1-.165-2.71l-.572.011v-.03a23.216,23.216,0,0,1,.162-2.731l.57.062a22.307,22.307,0,0,1,.482-2.661l-.557-.136a22.863,22.863,0,0,1,.822-2.651l.536.2a22.28,22.28,0,0,1,1.109-2.468l-.508-.266a23.07,23.07,0,0,1,1.435-2.375l.472.326a22.5,22.5,0,0,1,1.667-2.13l-.429-.38a23.179,23.179,0,0,1,1.959-1.963l.381.429a22.51,22.51,0,0,1,2.126-1.671l-.327-.471a23.073,23.073,0,0,1,2.369-1.439l.268.507a22.288,22.288,0,0,1,2.464-1.114l-.2-.536a22.8,22.8,0,0,1,2.648-.828l.137.556a22.3,22.3,0,0,1,2.66-.489l-.069-.569a23.235,23.235,0,0,1,2.767-.169v.572h.033a22.624,22.624,0,0,1,2.667.159l.068-.569a23,23,0,0,1,2.729.493l-.136.557a22.232,22.232,0,0,1,2.585.8l.2-.536a22.862,22.862,0,0,1,2.532,1.137l-.266.508a22.393,22.393,0,0,1,2.316,1.4l.325-.472a23.255,23.255,0,0,1,2.185,1.708l-.38.43a22.534,22.534,0,0,1,1.915,1.909l.428-.381a23.191,23.191,0,0,1,1.715,2.178l-.471.327a22.39,22.39,0,0,1,1.4,2.31l.507-.268a22.947,22.947,0,0,1,1.144,2.527l-.536.2a22.208,22.208,0,0,1,.808,2.58l.557-.138a23,23,0,0,1,.5,2.728l-.568.069a22.616,22.616,0,0,1,.167,2.7h.572Z" transform="translate(-173.164 -259.171)"/><circle class="a" cx="2.286" cy="2.286" r="2.286" transform="translate(29.952 52.284)"/><circle class="a" cx="2.286" cy="2.286" r="2.286" transform="translate(37.04 52.284)"/><circle class="a" cx="2.286" cy="2.286" r="2.286" transform="translate(44.899 52.284)"/><rect class="c" width="118.437" height="0.457" transform="translate(32.239 59.47)"/><rect class="c" width="45.5" height="0.457" transform="translate(67.48 134.614)"/><rect class="c" width="45.5" height="0.457" transform="translate(67.48 139.415)"/><rect class="c" width="45.5" height="0.457" transform="translate(67.48 144.217)"/><rect class="b" width="240" height="0.457" transform="translate(0 153.363)"/><path class="d" d="M821.823,295.848h0c-4.509,0-8.164,4.056-8.164,9.06v6.358h1.955l1.132-2.355-.283,2.355h12.568l1.029-2.141-.257,2.141h1.415v-4.992C831.218,300.516,827.012,295.848,821.823,295.848Z" transform="translate(-643.741 -249.84)"/><path class="e" d="M765.634,614.389l3.734,10.021,4.519,2.358-3.537-12.379Z" transform="translate(-587.471 -471.16)"/><path class="e" d="M855.871,611.2l5.7,11.593,2.947-1.768-4.323-11.79Z" transform="translate(-656.142 -467.183)"/><circle class="e" cx="5.502" cy="5.502" r="5.502" transform="translate(171.2 48.608)"/><path class="e" d="M840.181,342.8s1.965,5.109.786,6.484,7.467-2.161,7.467-2.161-3.733-4.519-3.537-6.484Z" transform="translate(-664.218 -284.238)"/><path class="e" d="M771.414,300.632l2.947-.589,2.947-3.537s1.375-4.912,3.144-6.288v-.589s-9.039-5.895-11.79-5.7c0,0-9.235,2.751-7.467,0a5.817,5.817,0,0,1,2.324-1.881,11.407,11.407,0,0,1,9.036-.447l12.809,4.686a5.1,5.1,0,0,1-.2,4.323c-1.179,2.358-5.305,14.541-5.305,14.541a54.552,54.552,0,0,0-2.554,6.091c-.982,2.947-1.768,4.912-1.768,4.912l-16.7-.2,1.375-6.091s-1.375-2.554-3.34-2.751c0,0-14.148-5.5-14.737-8.842a1.981,1.981,0,0,1,.589-1.768c.786-.589,9.628-10.218,9.628-10.218s3.93-5.109,5.895-3.537-3.537,5.5-3.537,5.5-5.7,8.646-6.484,9.235c0,0,5.5,3.34,7.074,3.733s5.305,0,7.074,1.572a6.192,6.192,0,0,0,4.716-.589A11.845,11.845,0,0,1,771.414,300.632Z" transform="translate(-588.48 -238.232)"/><path class="d" d="M787.162,365.339l-2.947,7.86s-2.554,2.358-1.572,7.86c0,0,.393,5.109-.786,6.681s-17.488,19.453-1.965,57.18c0,0,10.414-1.965,18.274,1.375s20.828-3.537,20.828-3.537l-20.435-50.3s-.589-10.414,2.751-15.13l-2.161-1.768s-2.554-6.288-2.161-8.253c0,0,.786-3.93,1.179-4.323h-1.572l-2.161,5.109s-3.537,6.681-6.484,6.091-.589-4.716-.589-4.716l.982-3.93Z" transform="translate(-611.601 -299.725)"/><path class="d" d="M852.754,754.442s-4.464-1.826-4.786-1.306-1.895,3.664-1.895,3.664-6.091,6.288-1.179,7.074,5.5-1.965,5.5-1.965.2-.2.982-.2,3.93-1.179,3.733-1.768S852.754,754.442,852.754,754.442Z" transform="translate(-666.311 -600.602)"/><path class="d" d="M961.041,753.146s-4.126.982-4.323,1.768-1.572,6.091-.393,6.484,2.947.982,3.537.786,1.965,2.554,4.912,1.965,4.323-.982,4.126-1.179-.982-3.144-3.34-4.323S961.041,753.146,961.041,753.146Z" transform="translate(-752.469 -600.681)"/><path class="d" d="M828.7,300.948a4.282,4.282,0,0,0-3.378-1.724h-.16c-3.09,0-5.6,2.8-5.6,6.246H820.6l.167-1.273.245,1.273h6.142l.515-1.077-.129,1.077h1.208q.846,4.2-2.43,8.4h2.058l1.029-2.154-.257,2.154h3.923l.772-4.954A8.372,8.372,0,0,0,828.7,300.948Z" transform="translate(-648.319 -252.434)"/><path class="b" d="M759.2,121.293c0-.018,0-.036,0-.055a22.622,22.622,0,0,0-.155-2.634l.654-.08a22.974,22.974,0,0,0-.5-2.728l-.626.155a22.225,22.225,0,0,0-.792-2.577l.589-.225a22.939,22.939,0,0,0-1.144-2.527l-.543.287a22.4,22.4,0,0,0-1.389-2.315l.491-.341a23.165,23.165,0,0,0-1.715-2.179l-.435.386a22.534,22.534,0,0,0-1.9-1.921l.374-.423a23.188,23.188,0,0,0-2.185-1.709l-.311.451a22.392,22.392,0,0,0-2.311-1.414l.247-.471a22.976,22.976,0,0,0-2.532-1.137l-.183.483a22.22,22.22,0,0,0-2.588-.817l.119-.487a22.95,22.95,0,0,0-2.729-.493l-.057.483a22.615,22.615,0,0,0-2.71-.17v-.474a23.281,23.281,0,0,0-2.767.169l.056.461a22.313,22.313,0,0,0-2.675.481l-.109-.441a22.877,22.877,0,0,0-2.647.828l.159.417A22.273,22.273,0,0,0,726.4,101.4l-.206-.39a23.059,23.059,0,0,0-2.369,1.439l.249.359a22.494,22.494,0,0,0-2.14,1.68l-.289-.325a23.18,23.18,0,0,0-1.959,1.963l.325.288a22.492,22.492,0,0,0-1.676,2.144l-.359-.248a23.012,23.012,0,0,0-1.435,2.375l.39.2a22.276,22.276,0,0,0-1.11,2.484l-.418-.158a22.869,22.869,0,0,0-.822,2.651l.442.108a22.323,22.323,0,0,0-.474,2.676l-.461-.055a23.315,23.315,0,0,0-.162,2.745v.022l.475-.009a22.629,22.629,0,0,0,.176,2.719l-.483.058a22.977,22.977,0,0,0,.5,2.728l.487-.12a22.236,22.236,0,0,0,.823,2.584l-.483.184a22.952,22.952,0,0,0,1.142,2.528l.471-.248a22.408,22.408,0,0,0,1.418,2.306L718,134.4a23.216,23.216,0,0,0,1.713,2.18l.423-.375a22.537,22.537,0,0,0,1.925,1.9l-.385.435a23.116,23.116,0,0,0,2.183,1.711l.34-.492a22.4,22.4,0,0,0,2.319,1.384l-.286.544a22.967,22.967,0,0,0,2.531,1.139l.223-.589a22.217,22.217,0,0,0,2.581.786l-.154.627a22.972,22.972,0,0,0,2.729.5l.078-.655a22.632,22.632,0,0,0,2.58.149h.109v.671a23.3,23.3,0,0,0,2.768-.166l-.082-.677a22.3,22.3,0,0,0,2.645-.493l.165.672a22.908,22.908,0,0,0,2.648-.825l-.249-.654a22.282,22.282,0,0,0,2.448-1.111l.329.625a23.055,23.055,0,0,0,2.371-1.437l-.4-.584A22.493,22.493,0,0,0,751.663,138l.472.533a23.172,23.172,0,0,0,1.961-1.961l-.533-.472a22.492,22.492,0,0,0,1.661-2.114l.584.4a23.085,23.085,0,0,0,1.437-2.373l-.625-.329a22.287,22.287,0,0,0,1.11-2.45l.655.248a22.9,22.9,0,0,0,.824-2.65l-.672-.165a22.316,22.316,0,0,0,.492-2.645l.677.081a23.313,23.313,0,0,0,.165-2.767v-.044Z" transform="translate(-566.836 -98.365)"/></g></svg>