<svg xmlns="http://www.w3.org/2000/svg" width="240" height="153.692" viewBox="0 0 240 153.692"><defs><style>.a{fill:#e6e6e6;}.b{fill:#3f3d56;}.c{fill:#6c63ff;}.d{fill:#ffb9b9;}.e{fill:#2f2e41;}.f{fill:#d0cde1;}</style></defs><g transform="translate(0 0)"><path class="a" d="M674.039,317.487c-.219.517-.432,1.046-.635,1.574l-.531-.2c.205-.534.421-1.069.642-1.592Z" transform="translate(-534.765 -273.395)"/><path class="a" d="M773.786,261.234c-.274.714-.567,1.427-.87,2.121l-.521-.228c.454-1.039.881-2.117,1.266-3.189l.536.192Q774,260.682,773.786,261.234Zm1.47-4.408-.547-.155c.311-1.1.588-2.218.822-3.33l.557.117c-.238,1.124-.517,2.258-.832,3.368Zm-3.834,9.66c-.532,1.024-1.106,2.04-1.705,3.021l-.485-.3c.592-.97,1.159-1.975,1.686-2.987Zm5.264-16.445-.564-.079c.158-1.128.278-2.276.358-3.412l.567.04c-.082,1.149-.2,2.31-.362,3.451Zm-8.88,22.364c-.666.939-1.374,1.867-2.1,2.759l-.44-.36c.722-.882,1.422-1.8,2.081-2.728Zm9.363-29.283H776.6c0-1.139-.038-2.291-.115-3.425l.568-.038c.078,1.147.117,2.312.117,3.464Zm-13.761,34.653c-.792.841-1.622,1.663-2.468,2.445l-.386-.418c.836-.773,1.657-1.586,2.44-2.418ZM776.7,236.209l-.564.077c-.156-1.128-.352-2.265-.584-3.379l.557-.116c.233,1.127.434,2.276.59,3.417Zm-18.387,46.279c-.9.724-1.834,1.424-2.778,2.083l-.325-.467c.934-.651,1.858-1.344,2.747-2.06Zm16.974-53.066-.548.154c-.308-1.1-.657-2.2-1.039-3.269l.536-.191c.385,1.085.739,2.2,1.051,3.306ZM752.62,286.459c-.987.593-2.008,1.159-3.035,1.684l-.259-.507c1.015-.519,2.024-1.079,3-1.666Zm20.341-63.57-.522.227c-.454-1.045-.95-2.087-1.474-3.1l.505-.262c.53,1.023,1.032,2.077,1.49,3.134Zm-26.518,66.727c-1.06.453-2.148.876-3.235,1.256l-.188-.537c1.075-.376,2.151-.793,3.2-1.242Zm23.325-72.887-.486.3c-.591-.972-1.225-1.938-1.882-2.87l.465-.328c.664.942,1.305,1.919,1.9,2.9ZM739.9,291.905c-1.111.305-2.246.575-3.374.8l-.113-.558c1.115-.226,2.238-.493,3.337-.795Zm25.869-80.844-.441.359c-.72-.884-1.48-1.755-2.259-2.587l.415-.389c.787.841,1.557,1.722,2.284,2.616ZM733.1,293.28c-1.141.151-2.3.263-3.451.335l-.035-.568c1.135-.071,2.283-.182,3.412-.331Zm27.92-87.289-.387.416c-.835-.777-1.708-1.535-2.594-2.253l.358-.442c.9.726,1.78,1.493,2.624,2.279Zm-34.834,87.72c-1.152-.007-2.319-.055-3.467-.142l.043-.567c1.135.086,2.288.133,3.428.141Zm29.439-92.088-.327.466c-.933-.654-1.9-1.284-2.875-1.871l.294-.487c.986.595,1.964,1.231,2.908,1.892Zm-36.355,91.564c-1.14-.166-2.288-.374-3.414-.618l.121-.556c1.113.241,2.249.447,3.376.611Zm30.416-95.145-.26.506c-1.012-.519-2.056-1.01-3.1-1.461l.225-.523C747.608,197.021,748.664,197.518,749.688,198.043Zm-37.194,93.675c-1.1-.32-2.214-.683-3.3-1.078l.2-.535c1.072.391,2.169.749,3.261,1.066Zm30.633-95.877c-1.076-.379-2.177-.725-3.273-1.03l.152-.548c1.108.308,2.222.658,3.31,1.041Zm-6.608-1.834c-1.118-.229-2.256-.421-3.383-.573l.076-.564c1.14.153,2.291.348,3.421.579Zm-6.8-.91c-1.136-.073-2.288-.107-3.425-.1l0-.569c1.15-.005,2.316.029,3.464.1Zm-6.85.033c-1.136.084-2.283.209-3.409.37l-.081-.563c1.138-.163,2.3-.289,3.447-.374Zm-6.785.973c-1.115.239-2.235.519-3.327.832l-.157-.547c1.105-.317,2.237-.6,3.365-.842Zm-6.591,1.89c-1.071.388-2.142.817-3.184,1.277l-.23-.52c1.054-.465,2.138-.9,3.22-1.292Zm-6.275,2.769c-1.01.531-2.013,1.1-2.982,1.7l-.3-.484c.98-.6,1.995-1.182,3.016-1.718Zm-5.842,3.6c-.928.664-1.845,1.367-2.723,2.091l-.362-.439c.889-.732,1.815-1.443,2.754-2.114Zm-5.3,4.364c-.829.784-1.64,1.607-2.411,2.445l-.419-.385c.78-.848,1.6-1.68,2.439-2.473Zm-4.649,5.051c-.712.889-1.4,1.815-2.05,2.751l-.468-.324c.656-.947,1.353-1.883,2.073-2.783Zm-3.9,5.638c-.582.978-1.138,1.989-1.652,3.007l-.508-.257c.52-1.029,1.083-2.052,1.671-3.041Z" transform="translate(-540.739 -179.627)"/><path class="a" d="M776.018,579.731l-.231.52c-.525-.234-1.048-.477-1.556-.724l.249-.511C774.981,579.259,775.5,579.5,776.018,579.731Z" transform="translate(-610.938 -470.113)"/><rect class="b" width="136.077" height="86.8" transform="translate(11.876 66.623)"/><path class="a" d="M634.2,537.252c-.065-.107-1.6-2.677-2.138-8.013-.49-4.9-.175-13.149,4.105-24.66A49.73,49.73,0,0,0,634.195,465l.492-.286a43.68,43.68,0,0,1,4.121,11.674,50.931,50.931,0,0,1-2.109,28.389c-8.094,21.771-2.077,32.077-2.015,32.178Z" transform="translate(-503.946 -383.908)"/><circle class="c" cx="3.698" cy="3.698" r="3.698" transform="translate(123.362 72.091)"/><circle class="a" cx="3.698" cy="3.698" r="3.698" transform="translate(135.075 85.804)"/><circle class="c" cx="3.698" cy="3.698" r="3.698" transform="translate(127.076 94.946)"/><circle class="c" cx="3.698" cy="3.698" r="3.698" transform="translate(136.789 102.66)"/><circle class="a" cx="3.698" cy="3.698" r="3.698" transform="translate(124.219 114.658)"/><path class="a" d="M648.456,710s-3.7-9.1,7.4-15.928Z" transform="translate(-515.954 -556.518)"/><path class="a" d="M587.136,728.59s-1.683-9.679-14.708-9.6Z" transform="translate(-459.248 -575.275)"/><path class="c" d="M482.432,476.108a26.322,26.322,0,0,1,7.847,5.309l2.283-2.283a29.479,29.479,0,0,0-9.287-6.172Z" transform="translate(-391.625 -390.391)"/><path class="c" d="M329.549,515.581a26.223,26.223,0,0,1,5.19-9.205l-2.287-2.287a29.4,29.4,0,0,0-6.02,10.657Z" transform="translate(-274.392 -413.775)"/><path class="a" d="M527.636,510.679l-2.305,2.305a26.157,26.157,0,0,1,4,7.973l3.113-.834A29.347,29.347,0,0,0,527.636,510.679Z" transform="translate(-423.869 -418.73)"/><path class="c" d="M362.891,474.575l2.291,2.291a26.2,26.2,0,0,1,9.171-4.964l-.834-3.113a29.378,29.378,0,0,0-10.628,5.786Z" transform="translate(-301.787 -387.256)"/><path class="c" d="M324.216,568.441a26.326,26.326,0,0,1,.288-3.885l-3.126-.837a29.649,29.649,0,0,0,.545,12.069l3.111-.834a26.185,26.185,0,0,1-.819-6.513Z" transform="translate(-270.313 -458.582)"/><path class="a" d="M436.612,685.545a26.192,26.192,0,0,1-6.463.807c-.807,0-1.606-.039-2.395-.111l-.844,3.149a29.615,29.615,0,0,0,10.535-.734Z" transform="translate(-349.899 -550.102)"/><path class="c" d="M333.3,625.238l-3.147.843a29.489,29.489,0,0,0,6.543,9.658l2.283-2.283A26.332,26.332,0,0,1,333.3,625.238Z" transform="translate(-277.189 -504.716)"/><path class="a" d="M547.407,565.469l-3.131.839a26.294,26.294,0,0,1-.265,8.513l3.117.835a29.68,29.68,0,0,0,.279-10.187Z" transform="translate(-437.914 -459.904)"/><path class="c" d="M423.295,467.256a26.3,26.3,0,0,1,10.014.584l.834-3.111a29.666,29.666,0,0,0-11.687-.6Z" transform="translate(-346.55 -383.521)"/><path class="a" d="M380.452,673.369A26.123,26.123,0,0,1,371.9,669.4l-2.311,2.311a29.318,29.318,0,0,0,10.031,4.771Z" transform="translate(-306.82 -537.95)"/><path class="a" d="M491.656,663.674l-2.285-2.285A26.3,26.3,0,0,1,482.24,666l.843,3.145A29.46,29.46,0,0,0,491.656,663.674Z" transform="translate(-391.481 -531.923)"/><path class="a" d="M526.848,619.631a26.224,26.224,0,0,1-4.126,7.267l2.3,2.3a29.4,29.4,0,0,0,4.955-8.726Z" transform="translate(-421.908 -500.608)"/><rect class="a" width="14.35" height="5.69" transform="translate(14.845 71.219)"/><rect class="c" width="14.35" height="5.69" transform="translate(14.845 79.916)"/><path class="d" d="M527.969,193.621s1.616,5.31.693,6.926,1.616,5.079,5.772,3.463,4.387-3.463,4.387-3.463-1.616-2.54-2.078-7.85Z" transform="translate(-425.845 -179.832)"/><path class="d" d="M425.659,406.155s-8.311,4.156-4.617,9.7c2.147,3.221,6.244,9.484,9.3,14.164A47.237,47.237,0,0,1,436.16,442.7l.582,2.01,2.309,2.771,4.848-5.541s-7.157-13.16-7.157-15.7-5.772-10.62-5.772-10.62l5.772-3.694S430.277,404.539,425.659,406.155Z" transform="translate(-344.758 -339.926)"/><path class="d" d="M546.848,460.635s.231,6.464.462,9c.19,2.1-1.662,7.962-1.02,14.488a61.347,61.347,0,0,1-.14,12.687l-.918,8.38,6.926.693,2.309-18.932s1.385-13.391.693-17.777l.231-9.235S550.311,458.1,546.848,460.635Z" transform="translate(-438.819 -379.995)"/><path class="e" d="M451.978,349.68S435.816,360.07,435.586,363.3c0,0,9.235-.923,9.466,7.157,0,0,5.541-2.078,6.926-2.54s8.773-5.31,8.773-5.31a8.252,8.252,0,0,1,3,6c0,3.694-.231,10.159,0,10.62s5.541-6.234,9.928-.462l3-15.93s.924-9.7-.923-10.389L462.829,347.6Z" transform="translate(-356.365 -296.141)"/><circle class="d" cx="6.926" cy="6.926" r="6.926" transform="translate(98.536 2.823)"/><path class="f" d="M498.173,223.451s7.812,2.063,8.87-1.854c0,0,9.6,1.854,11.216,8.088s-3.925,21.241-3.925,21.7,4.617,3.232,2.54,4.617-3.925-.231-3,1.616,2.54,2.309,1.154,2.771-9.7-6.7-16.161-4.848-9.7.462-9.7.462l-2.9-25.053a5.787,5.787,0,0,1,2.058-5.136,12.731,12.731,0,0,1,5.228-2.827c3.694-.693,3.847-1.072,3.847-1.072Z" transform="translate(-394.436 -201.581)"/><path class="d" d="M504.639,392.394s2.078,11.775,4.848,10.159-.693-10.159-.693-10.159Z" transform="translate(-408.321 -329.841)"/><path class="d" d="M538.377,398.553s-3.6,11.4-.4,11.249,4.082-9.328,4.082-9.328Z" transform="translate(-432.381 -334.468)"/><path class="e" d="M464.591,549.03s-1.616-1.847-2.54.693a26.894,26.894,0,0,1-3.463,5.772s-5.541,6.234-1.616,6.464,9.466-5.541,9.466-5.541l6.465-6s-2.143-5.218-3.149-5.264S468.978,551.339,464.591,549.03Z" transform="translate(-371.423 -444.614)"/><path class="e" d="M534.285,633.738s-1.627.475-1.506-1.494c0,0-5.882,3.11-4.266,5.419s3.463,4.618,3.463,4.618,8.542,4.848,9.235,3.694a5.839,5.839,0,0,0,.231-4.387c-.462-.924-2.771-2.54-2.078-3.925s-.231-5.079-1.385-5.079A13.91,13.91,0,0,0,534.285,633.738Z" transform="translate(-426.037 -509.989)"/><path class="e" d="M512.048,144.574s2.228-4.828,6.5-3.714,6.684,2.785,6.87,4.456a23.843,23.843,0,0,1-.093,4.178s-.464-3.435-3.435-2.692a26.5,26.5,0,0,1-7.613.186l-.743,6.684s-.836-1.207-1.764-.464S509.077,146.06,512.048,144.574Z" transform="translate(-412.632 -140.694)"/><path class="f" d="M553.8,249.334s-5.541,15.007-5.079,16.854,0,2.078-.693,2.54-2.54,5.31-2.54,5.31-1.154,2.771-2.078,3.463-.924,2.54-.924,2.54-2.309,2.309-1.847,2.771.462,1.154-.462,1.847-1.847,1.616-1.385,1.847,3.694,2.771,4.617,2.54-.462-1.154.693-1.616,1.847-1.154,1.385-1.385-1.847-.231-.462-.693,6.234-3.463,7.85-7.157,9.359-26.044,4.68-29.183C557.556,249.01,555.647,246.563,553.8,249.334Z" transform="translate(-433.867 -221.309)"/><path class="f" d="M483.17,243.088l-.094.039a5.814,5.814,0,0,0-3.454,4.18,29.67,29.67,0,0,0-.608,9.171c.693,5.772,1.154,8.312,2.078,10.159s1.154,1.154.924,2.54-1.385.231-.231,2.078,1.847,1.385,1.385,2.309-1.154.923-.231,2.078a6.442,6.442,0,0,1,1.154,2.078c.231.462.923,3.925.923,3.925s3.694-1.154,5.772-.693c0,0-1.847-3.232-1.385-3.925s1.154-.924.462-1.616-1.847-.462-.693-1.154-.924-7.85-.924-7.85Z" transform="translate(-388.947 -217.613)"/><rect class="b" width="240" height="0.495" transform="translate(0 153.197)"/><path class="b" d="M631.657,227.983l-.36-.339,27.147-28.809h22.1v.495H658.658Z" transform="translate(-474.107 -149.387)"/><rect class="c" width="26.079" height="0.884" transform="translate(191.406 53.2)"/><rect class="c" width="26.079" height="0.884" transform="translate(191.406 56.973)"/><rect class="c" width="26.079" height="0.884" transform="translate(191.406 60.746)"/><rect class="c" width="26.079" height="0.884" transform="translate(188.685 125.615)"/><rect class="c" width="26.079" height="0.884" transform="translate(188.685 129.372)"/><rect class="c" width="26.079" height="0.884" transform="translate(188.685 133.129)"/><path class="b" d="M677.647,396.462H651.538l-.074-.107-20.288-29.442.407-.281L651.8,395.967h25.848Z" transform="translate(-474.205 -275.452)"/></g></svg>